<svg width="22" height="31" viewBox="0 0 22 31" fill="none" xmlns="http://www.w3.org/2000/svg">
<path d="M21.9178 18.25C21.7298 16.9232 21.0531 15.8913 19.8877 15.2279C19.3613 14.933 18.7222 14.7119 18.1207 14.4539C18.1959 14.4171 18.2335 14.3434 18.2711 14.3434C21.2411 12.8323 20.9779 8.33598 18.835 6.78807C17.9703 6.16154 16.9929 5.75613 15.9402 5.535C15.1883 5.38758 14.474 5.27701 13.6845 5.12959C13.6845 3.83967 13.7221 1.99692 13.7221 0.55957H10.9025C10.9025 1.96006 10.8649 3.76596 10.8649 5.01903H8.64681C8.64681 3.7291 8.64681 1.96006 8.6844 0.55957H5.90239C5.90239 2.03377 5.86479 3.80281 5.86479 5.09274C3.94746 5.09274 2.10531 5.05588 0.225568 5.05588C0.225568 6.05097 0.225569 7.0092 0.187974 7.96743H1.31582C1.65417 7.96743 2.03012 7.96743 2.36847 8.00429C3.34594 8.078 3.83467 8.59397 3.83467 9.5522L3.72189 21.309C3.72189 22.1566 3.34594 22.5252 2.48126 22.5252H0.601517C0.413543 23.6308 0.225569 24.6996 0 25.8053C1.87974 25.8421 3.75948 25.8421 5.63922 25.879C5.63922 27.2795 5.63922 29.0854 5.60163 30.5596H8.38365C8.38365 29.0854 8.42124 27.3532 8.42124 25.9527C9.21073 25.9895 9.92503 25.9895 10.6393 26.0264C10.6393 27.4269 10.6017 29.1222 10.6017 30.5596H13.3838C13.3838 29.0854 13.4214 27.3532 13.4214 25.9895C13.5341 25.9895 13.6093 25.9527 13.6469 25.9527C14.9627 25.7316 16.3538 25.621 17.632 25.3262C19.3237 24.9207 20.6772 23.9625 21.3539 22.304C21.993 20.9773 22.1058 19.6505 21.9178 18.25ZM8.64681 8.26227C10.3762 8.26227 12.0679 8.11485 13.6845 8.8151C14.7372 9.25736 15.2635 10.105 15.1883 11.137C15.1131 12.2058 14.474 12.9797 13.3838 13.3483C11.8424 13.8274 10.2634 13.8274 8.60922 13.7537C8.60922 11.9109 8.64681 10.1419 8.64681 8.26227ZM14.7372 21.9355C13.1958 22.5989 11.5416 22.5989 9.92503 22.6357C9.4739 22.6357 9.02276 22.5989 8.49643 22.5989C8.53402 20.5719 8.53403 18.5817 8.57162 16.5547C10.6769 16.5547 12.7822 16.4072 14.7748 17.2549C15.7898 17.6972 16.3913 18.4711 16.3913 19.6136C16.3913 20.7561 15.7898 21.4932 14.7372 21.9355Z" fill="#FFAA2B"/>
</svg>
