<svg width="12" height="23" viewBox="0 0 12 23" fill="none" xmlns="http://www.w3.org/2000/svg">
<path d="M0.387839 10.0212C0.38764 9.91909 0.387439 9.81653 0.387263 9.71344C0.798011 9.91628 1.18852 10.1104 1.57887 10.3089L1.57957 10.3093C2.58 10.8152 3.58069 11.3222 4.58152 11.8292C6.58285 12.8432 8.58475 13.8575 10.5862 14.8638C10.6935 14.9205 10.7307 14.9599 10.7458 14.9829C10.7562 14.999 10.7749 15.0347 10.7691 15.1345L10.7689 15.1373C10.7586 15.3443 10.7779 15.5797 10.7945 15.7832C10.8011 15.8645 10.8074 15.9406 10.8111 16.0078C10.8263 16.2797 10.8094 16.4592 10.7457 16.5822C10.6943 16.6814 10.5694 16.7783 10.3198 16.889C10.2218 16.9326 10.1193 16.9723 10.008 17.0154C9.98377 17.0248 9.95914 17.0344 9.93404 17.0442C9.79898 17.0968 9.65211 17.1558 9.51536 17.2256L9.51398 17.2263C8.71775 17.6375 7.92219 18.0487 7.12696 18.4597C4.88584 19.618 2.64739 20.7749 0.404429 21.9275V21.9264V21.9195V21.9127V21.9059V21.8991V21.8923V21.8855V21.8787V21.8719V21.865V21.8582V21.8514V21.8446V21.8378V21.831V21.8242V21.8174V21.8106V21.8038V21.797V21.7902V21.7834V21.7766V21.7698V21.763V21.7562V21.7494V21.7426V21.7358V21.7291V21.7223V21.7155V21.7087V21.7019V21.6951V21.6883V21.6816V21.6748V21.668V21.6612V21.6544V21.6476V21.6409V21.6341V21.6273V21.6205V21.6138V21.607V21.6002V21.5934V21.5867V21.5799V21.5731V21.5664V21.5596V21.5528V21.5461V21.5393V21.5325V21.5258V21.519V21.5122V21.5055V21.4987V21.4919V21.4852V21.4784V21.4717V21.4649V21.4582V21.4514V21.4446V21.4379V21.4311V21.4244V21.4176V21.4109V21.4041V21.3974V21.3906V21.3839V21.3771V21.3704V21.3637V21.3569V21.3502V21.3434V21.3367V21.3299V21.3232V21.3165V21.3097V21.303V21.2962V21.2895V21.2828V21.276V21.2693V21.2626V21.2558V21.2491V21.2424V21.2356V21.2289V21.2222V21.2154V21.2087V21.202V21.1953V21.1885V21.1818V21.1751V21.1684V21.1616V21.1549V21.1482V21.1415V21.1347V21.128V21.1213V21.1146V21.1079V21.1011V21.0944V21.0877V21.081V21.0743V21.0676V21.0608V21.0541V21.0474V21.0407V21.034V21.0273V21.0206V21.0139V21.0072V21.0004V20.9937V20.987V20.9803V20.9736V20.9669V20.9602V20.9535V20.9468V20.9401V20.9334V20.9267V20.92V20.9133V20.9066V20.8999V20.8932V20.8865V20.8798V20.8731V20.8664V20.8597V20.853V20.8463V20.8396V20.8329V20.8262V20.8195V20.8128V20.8062V20.7995V20.7928V20.7861V20.7794V20.7727V20.766V20.7593V20.7526V20.7459V20.7393V20.7326V20.7259V20.7192V20.7125V20.7058V20.6992V20.6925V20.6858V20.6791V20.6724V20.6657V20.6591V20.6524V20.6457V20.639V20.6323V20.6257V20.619V20.6123V20.6056V20.5989V20.5923V20.5856V20.5789V20.5722V20.5656V20.5589V20.5522V20.5456V20.5389V20.5322V20.5255V20.5189V20.5122V20.5055V20.4988V20.4922V20.4855V20.4788V20.4722V20.4655V20.4588V20.4522V20.4455V20.4388V20.4322V20.4255V20.4188V20.4122V20.4055V20.3988V20.3922V20.3855V20.3788V20.3722V20.3655V20.3589V20.3522V20.3455V20.3389V20.3322V20.3256V20.3189V20.3122V20.3056V20.2989V20.2923V20.2856V20.2789V20.2723V20.2656V20.259V20.2523V20.2456V20.239V20.2323V20.2257V20.219V20.2124V20.2057V20.1991V20.1924V20.1857V20.1791V20.1724V20.1658V20.1591V20.1525V20.1458V20.1392V20.1325V20.1259V20.1192V20.1126V20.1059V20.0993V20.0926V20.086V20.0793V20.0727V20.066V20.0594V20.0527V20.0461V20.0394V20.0328V20.0261V20.0195V20.0128V20.0062V19.9995V19.9929V19.9862V19.9796V19.9729V19.9663V19.9596V19.953V19.9463V19.9397V19.9331V19.9264V19.9198V19.9131V19.9065V19.8998V19.8932V19.8865V19.8799V19.8732V19.8666V19.86V19.8533V19.8467V19.84V19.8334V19.8267V19.8201V19.8135V19.8068V19.8002V19.7935V19.7869V19.7802V19.7736V19.767V19.7603V19.7537V19.747V19.7404V19.7337V19.7271V19.7205V19.7138V19.7072V19.7005V19.6939V19.6873V19.6806V19.674V19.6673V19.6607V19.654V19.6474V19.6408V19.6341V19.6275V19.6208V19.6142V19.6076V19.6009V19.5943V19.5876V19.581V19.5744V19.5677V19.5611V19.5544V19.5478V19.5412V19.5345V19.5279V19.5212V19.5146V19.508V19.5013V19.4947V19.488V19.4814V19.4748V19.4681V19.4615V19.4548V19.4482V19.4415V19.4349V19.4283V19.4216V19.415V19.4083V19.4017V19.3951V19.3884V19.3818V19.3751V19.3685V19.3619V19.3552V19.3486V19.3419V19.3353V19.3287V19.322V19.3154V19.3087V19.3021V19.2954V19.2888V19.2822V19.2755V19.2689V19.2622V19.2556V19.2489V19.2423V19.2357V19.229V19.2224V19.2157V19.2091V19.2024V19.1958V19.1892V19.1825V19.1759V19.1692V19.1626V19.1559V19.1493V19.1427V19.136V19.1294V19.1227V19.1161V19.1094V19.1028V19.0961V19.0895V19.0828V19.0762V19.0695V19.0674C0.408849 19.0654 0.413801 19.0633 0.419344 19.0609C0.431174 19.0559 0.44216 19.0514 0.455531 19.0459C0.461358 19.0436 0.467637 19.041 0.474636 19.0381C0.49543 19.0296 0.52089 19.019 0.54712 19.0068L0.547144 19.0069L0.552774 19.0042C1.47812 18.5549 2.40352 18.1077 3.32926 17.6604C4.25491 17.2132 5.1809 16.7658 6.10695 16.3162L6.10695 16.3162L6.10875 16.3153C6.22491 16.258 6.331 16.2008 6.4978 16.1004L7.05621 15.7642L6.4675 15.4845C6.06859 15.2949 5.67625 15.1112 5.2923 14.9315C4.95971 14.7758 4.63341 14.623 4.31458 14.4719L4.31318 14.4713C3.84199 14.2505 3.37072 14.0279 2.89919 13.8052C2.10718 13.4312 1.31443 13.0568 0.520016 12.6901L0.518917 12.6896C0.414163 12.6416 0.392855 12.6145 0.389759 12.6101L0.389683 12.61C0.388994 12.6091 0.386408 12.6055 0.383559 12.5936C0.380101 12.5792 0.376164 12.5517 0.377677 12.504L0.377719 12.504L0.377807 12.4986C0.391089 11.6808 0.389495 10.8667 0.387839 10.0212Z" fill="white" stroke="#FEFEFE" stroke-width="0.7"/>
<path d="M10.7801 12.4475C10.7803 12.5497 10.7805 12.6522 10.7807 12.7553C10.37 12.5525 9.97945 12.3583 9.5891 12.1598L9.5884 12.1595C8.58797 11.6536 7.58728 11.1466 6.58645 10.6395C4.58512 9.62554 2.58322 8.61128 0.581728 7.60497C0.474452 7.54829 0.437257 7.50887 0.422208 7.48583C0.41173 7.4698 0.393098 7.43409 0.398901 7.33426L0.399041 7.33144C0.409372 7.12449 0.390117 6.889 0.37348 6.68554C0.366837 6.6043 0.360612 6.52816 0.356853 6.46099C0.341636 6.18901 0.358584 6.00958 0.422282 5.88658C0.473668 5.78735 0.598582 5.69049 0.848124 5.5797C0.946198 5.53616 1.04869 5.49644 1.15999 5.4533C1.1842 5.44392 1.20883 5.43437 1.23392 5.42459C1.36899 5.37194 1.51586 5.31299 1.65261 5.24314L1.65399 5.24242C2.45022 4.8312 3.24578 4.42003 4.04101 4.00902C6.28213 2.85073 8.52058 1.69382 10.7635 0.541286L10.7635 0.542393L10.7635 0.54921L10.7635 0.556025L10.7635 0.56284L10.7635 0.569653L10.7635 0.576467L10.7635 0.583279L10.7635 0.59009L10.7635 0.596899L10.7635 0.603708L10.7635 0.610517L10.7635 0.617324L10.7635 0.624129L10.7635 0.630935L10.7635 0.637739L10.7635 0.644543L10.7635 0.651344L10.7635 0.658146L10.7635 0.664947L10.7635 0.671746L10.7635 0.678545L10.7635 0.685343L10.7635 0.69214L10.7635 0.698935L10.7635 0.705729L10.7635 0.712523L10.7635 0.719317L10.7635 0.726109L10.7635 0.732901L10.7635 0.739691L10.7635 0.74648L10.7635 0.753269L10.7635 0.760056L10.7635 0.766843L10.7635 0.773629L10.7635 0.780414L10.7635 0.787198L10.7635 0.793982L10.7635 0.800763L10.7635 0.807545L10.7635 0.814325L10.7635 0.821105L10.7635 0.827884L10.7635 0.834662L10.7635 0.841439L10.7635 0.848215L10.7635 0.854991L10.7635 0.861765L10.7635 0.868539L10.7635 0.875312L10.7635 0.882084L10.7635 0.888855L10.7635 0.895625L10.7635 0.902394L10.7635 0.909162L10.7635 0.915931L10.7635 0.922698L10.7635 0.929463L10.7635 0.936229L10.7635 0.942993L10.7635 0.949757L10.7635 0.95652L10.7635 0.963282L10.7635 0.970043L10.7635 0.976803L10.7635 0.983562L10.7635 0.990321L10.7635 0.99708L10.7635 1.00384L10.7635 1.01059L10.7635 1.01735L10.7635 1.0241L10.7635 1.03086L10.7635 1.03761L10.7635 1.04436L10.7635 1.05111L10.7635 1.05787L10.7635 1.06462L10.7635 1.07136L10.7635 1.07811L10.7635 1.08486L10.7635 1.09161L10.7635 1.09835L10.7635 1.1051L10.7635 1.11184L10.7635 1.11859L10.7635 1.12533L10.7635 1.13207L10.7635 1.13882L10.7635 1.14556L10.7635 1.1523L10.7635 1.15904L10.7635 1.16578L10.7635 1.17251L10.7635 1.17925L10.7635 1.18599L10.7635 1.19272L10.7635 1.19946L10.7635 1.20619L10.7635 1.21293L10.7635 1.21966L10.7635 1.22639L10.7635 1.23312L10.7635 1.23985L10.7635 1.24658L10.7635 1.25331L10.7635 1.26004L10.7635 1.26677L10.7635 1.2735L10.7635 1.28022L10.7635 1.28695L10.7635 1.29368L10.7635 1.3004L10.7635 1.30712L10.7635 1.31385L10.7635 1.32057L10.7635 1.32729L10.7635 1.33401L10.7635 1.34073L10.7635 1.34745L10.7635 1.35417L10.7635 1.36089L10.7635 1.36761L10.7635 1.37433L10.7635 1.38104L10.7635 1.38776L10.7635 1.39447L10.7635 1.40119L10.7635 1.4079L10.7635 1.41462L10.7635 1.42133L10.7635 1.42804L10.7635 1.43475L10.7635 1.44147L10.7635 1.44818L10.7635 1.45489L10.7635 1.46159L10.7635 1.4683L10.7635 1.47501L10.7635 1.48172L10.7635 1.48843L10.7635 1.49513L10.7635 1.50184L10.7635 1.50854L10.7635 1.51525L10.7635 1.52195L10.7635 1.52865L10.7635 1.53536L10.7635 1.54206L10.7635 1.54876L10.7635 1.55546L10.7635 1.56216L10.7635 1.56886L10.7635 1.57556L10.7635 1.58226L10.7635 1.58896L10.7635 1.59565L10.7635 1.60235L10.7635 1.60905L10.7635 1.61574L10.7635 1.62244L10.7635 1.62913L10.7635 1.63583L10.7635 1.64252L10.7635 1.64921L10.7635 1.65591L10.7635 1.6626L10.7635 1.66929L10.7635 1.67598L10.7635 1.68267L10.7635 1.68936L10.7635 1.69605L10.7635 1.70274L10.7635 1.70943L10.7635 1.71611L10.7635 1.7228L10.7635 1.72949L10.7635 1.73618L10.7635 1.74286L10.7635 1.74955L10.7635 1.75623L10.7635 1.76292L10.7635 1.7696L10.7635 1.77628L10.7635 1.78297L10.7635 1.78965L10.7635 1.79633L10.7635 1.80301L10.7635 1.80969L10.7635 1.81637L10.7635 1.82305L10.7635 1.82973L10.7635 1.83641L10.7635 1.84309L10.7635 1.84977L10.7635 1.85645L10.7635 1.86312L10.7635 1.8698L10.7635 1.87648L10.7635 1.88315L10.7635 1.88983L10.7635 1.8965L10.7635 1.90318L10.7635 1.90985L10.7635 1.91653L10.7635 1.9232L10.7635 1.92987L10.7635 1.93655L10.7635 1.94322L10.7635 1.94989L10.7635 1.95656L10.7635 1.96323L10.7635 1.9699L10.7635 1.97657L10.7635 1.98324L10.7635 1.98991L10.7635 1.99658L10.7635 2.00325L10.7635 2.00992L10.7635 2.01658L10.7635 2.02325L10.7635 2.02992L10.7635 2.03658L10.7635 2.04325L10.7635 2.04992L10.7635 2.05658L10.7635 2.06325L10.7635 2.06991L10.7635 2.07658L10.7635 2.08324L10.7635 2.0899L10.7635 2.09657L10.7635 2.10323L10.7635 2.10989L10.7635 2.11656L10.7635 2.12322L10.7635 2.12988L10.7635 2.13654L10.7635 2.1432L10.7635 2.14986L10.7635 2.15652L10.7635 2.16318L10.7635 2.16984L10.7635 2.1765L10.7635 2.18316L10.7635 2.18982L10.7635 2.19648L10.7635 2.20313L10.7635 2.20979L10.7635 2.21645L10.7635 2.22311L10.7635 2.22976L10.7635 2.23642L10.7635 2.24308L10.7635 2.24973L10.7635 2.25639L10.7635 2.26304L10.7635 2.2697L10.7635 2.27635L10.7635 2.28301L10.7635 2.28966L10.7635 2.29631L10.7635 2.30297L10.7635 2.30962L10.7635 2.31627L10.7635 2.32293L10.7635 2.32958L10.7635 2.33623L10.7635 2.34288L10.7635 2.34954L10.7635 2.35619L10.7635 2.36284L10.7635 2.36949L10.7635 2.37614L10.7635 2.38279L10.7635 2.38944L10.7635 2.39609L10.7635 2.40274L10.7635 2.40939L10.7635 2.41604L10.7635 2.42269L10.7635 2.42934L10.7635 2.43599L10.7635 2.44264L10.7635 2.44928L10.7635 2.45593L10.7635 2.46258L10.7635 2.46923L10.7635 2.47588L10.7635 2.48252L10.7635 2.48917L10.7635 2.49582L10.7635 2.50246L10.7635 2.50911L10.7635 2.51576L10.7635 2.5224L10.7635 2.52905L10.7635 2.5357L10.7635 2.54234L10.7635 2.54899L10.7635 2.55563L10.7635 2.56228L10.7635 2.56892L10.7635 2.57557L10.7635 2.58221L10.7635 2.58886L10.7635 2.5955L10.7635 2.60215L10.7635 2.60879L10.7635 2.61543L10.7635 2.62208L10.7635 2.62872L10.7635 2.63537L10.7635 2.64201L10.7635 2.64865L10.7635 2.6553L10.7635 2.66194L10.7635 2.66858L10.7635 2.67522L10.7635 2.68187L10.7635 2.68851L10.7635 2.69515L10.7635 2.70179L10.7635 2.70844L10.7635 2.71508L10.7635 2.72172L10.7635 2.72836L10.7635 2.73501L10.7635 2.74165L10.7635 2.74829L10.7635 2.75493L10.7635 2.76157L10.7635 2.76821L10.7635 2.77486L10.7635 2.7815L10.7635 2.78814L10.7635 2.79478L10.7635 2.80142L10.7635 2.80806L10.7635 2.8147L10.7635 2.82134L10.7635 2.82798L10.7635 2.83463L10.7635 2.84127L10.7635 2.84791L10.7635 2.85455L10.7635 2.86119L10.7635 2.86783L10.7635 2.87447L10.7635 2.88111L10.7635 2.88775L10.7635 2.89439L10.7635 2.90103L10.7635 2.90767L10.7635 2.91431L10.7635 2.92095L10.7635 2.92759L10.7635 2.93423L10.7635 2.94088L10.7635 2.94752L10.7635 2.95416L10.7635 2.9608L10.7635 2.96744L10.7635 2.97408L10.7635 2.98072L10.7635 2.98736L10.7635 2.994L10.7635 3.00064L10.7635 3.00728L10.7635 3.01392L10.7635 3.02056L10.7635 3.0272L10.7635 3.03384L10.7635 3.04048L10.7635 3.04712L10.7635 3.05376L10.7635 3.0604L10.7635 3.06705L10.7635 3.07369L10.7635 3.08033L10.7635 3.08697L10.7635 3.09361L10.7635 3.10025L10.7635 3.10689L10.7635 3.11353L10.7635 3.12017L10.7635 3.12681L10.7635 3.13346L10.7635 3.1401L10.7635 3.14674L10.7635 3.15338L10.7635 3.16002L10.7635 3.16666L10.7635 3.17331L10.7635 3.17995L10.7635 3.18659L10.7635 3.19323L10.7635 3.19987L10.7635 3.20652L10.7635 3.21316L10.7635 3.2198L10.7635 3.22644L10.7635 3.23309L10.7635 3.23973L10.7635 3.24637L10.7635 3.25302L10.7635 3.25966L10.7635 3.2663L10.7635 3.27295L10.7635 3.27959L10.7635 3.28623L10.7635 3.29288L10.7635 3.29952L10.7635 3.30617L10.7635 3.31281L10.7635 3.31946L10.7635 3.3261L10.7635 3.33274L10.7635 3.33939L10.7635 3.34603L10.7635 3.35268L10.7635 3.35933L10.7635 3.36597L10.7635 3.37262L10.7635 3.37926L10.7635 3.38591L10.7635 3.39256L10.7635 3.3992L10.7635 3.40136C10.7591 3.40333 10.7542 3.4055 10.7486 3.40785C10.7368 3.41288 10.7258 3.41736 10.7124 3.42281C10.7066 3.42519 10.7003 3.42775 10.6933 3.43062C10.6725 3.43915 10.6471 3.44975 10.6208 3.46191L10.6208 3.46186L10.6152 3.4646C9.68985 3.91388 8.76445 4.36101 7.83871 4.80831C6.91306 5.25555 5.98707 5.70297 5.06102 6.1526L5.06102 6.15259L5.05922 6.15348C4.94306 6.2107 4.83697 6.2679 4.67017 6.36833L4.11175 6.70453L4.70047 6.9843C5.09938 7.17386 5.49172 7.35753 5.87567 7.53728C6.20826 7.69298 6.53456 7.84573 6.85339 7.99683L6.85479 7.99748C7.32598 8.21823 7.79725 8.44081 8.26878 8.66351C9.06079 9.03757 9.85354 9.41198 10.648 9.77868L10.6491 9.77919C10.7538 9.8271 10.7751 9.85427 10.7782 9.85863L10.7783 9.85874C10.779 9.85969 10.7816 9.86327 10.7844 9.87515C10.7879 9.88956 10.7918 9.917 10.7903 9.96472L10.7902 9.96472L10.7902 9.97013C10.7769 10.788 10.7785 11.602 10.7801 12.4475Z" fill="white" stroke="#FEFEFE" stroke-width="0.7"/>
</svg>
