<svg width="12" height="24" viewBox="0 0 12 24" fill="none" xmlns="http://www.w3.org/2000/svg">
<path d="M0.0544286 23.4682C0.0544286 22.29 0.0544286 21.1642 0.0544286 20.0297C0.0544286 19.794 0.249312 19.7591 0.399904 19.6893C2.2513 18.7904 4.10269 17.9002 5.95408 17.0013C6.06038 16.9489 6.15782 16.8966 6.31727 16.8006C5.56432 16.4428 4.86451 16.1198 4.1647 15.7882C2.89796 15.1948 1.64007 14.5926 0.373329 14.0078C0.125295 13.8944 0.018995 13.7722 0.0278533 13.4929C0.04557 12.402 0.0367115 11.3198 0.0367115 10.1504C0.639079 10.4471 1.1883 10.7177 1.73751 10.9969C4.74049 12.5155 7.74347 14.0428 10.7464 15.5526C11.0122 15.6922 11.1362 15.8493 11.1185 16.1548C11.0919 16.6871 11.2779 17.3155 11.0565 17.7431C10.835 18.1708 10.1529 18.2929 9.67458 18.5373C6.56531 20.1431 3.46489 21.7489 0.355612 23.346C0.275887 23.3897 0.187304 23.4158 0.0544286 23.4682Z" fill="#11211D"/>
<path d="M11.0724 0.611328C11.0724 1.78078 11.0635 2.89787 11.0812 4.02369C11.0812 4.28551 10.9129 4.32915 10.7446 4.40769C8.77808 5.32406 6.81153 6.24042 4.85383 7.15678C4.80954 7.18296 4.76525 7.20915 4.65895 7.27024C5.73081 7.76769 6.74066 8.23897 7.75937 8.71024C8.79579 9.19024 9.83222 9.67897 10.8686 10.1502C11.0192 10.2201 11.099 10.2899 11.099 10.4644C11.0901 11.599 11.099 12.7248 11.099 13.9117C10.5055 13.6237 9.93852 13.3444 9.37159 13.0564C6.4129 11.5641 3.46307 10.0542 0.504381 8.5706C0.158905 8.39606 -0.0182613 8.20406 0.0437471 7.81133C0.0791805 7.55824 0.0880389 7.28769 0.0437471 7.02587C-0.0536947 6.44115 0.203197 6.14442 0.734698 5.87387C4.11859 4.16333 7.48476 2.41787 10.8598 0.681146C10.8952 0.663692 10.9572 0.654964 11.0724 0.611328Z" fill="#11211D"/>
</svg>
